# Blender v2.78 (sub 0) OBJ File: ''
# www.blender.org
mtllib VertCentered.mtl
o Cube.002
v -1.000000 -0.000000 1.000000
v -1.000000 0.000000 0.000000
v 0.000000 0.000000 0.000000
v 0.000000 -0.000000 1.000000
v -1.000000 1.000000 1.000000
v 0.000000 1.000000 1.000000
v 0.000000 1.000000 0.000000
v -1.000000 1.000000 0.000000
vt -0.0042 1.0011
vt -0.0042 0.5012
vt 0.4957 0.5012
vt 0.4957 1.0011
vt 0.5004 0.0005
vt 0.5004 0.5004
vt 0.0005 0.5004
vt 0.0005 0.0005
vt 0.7364 0.7841
vt 0.7364 1.0003
vt 0.5202 1.0003
vt 0.5202 0.7841
vt 0.4996 0.4973
vt 0.4996 -0.0026
vt 0.9995 -0.0026
vt 0.9995 0.4973
vt 0.7364 0.7841
vt 0.7364 1.0003
vt 0.5202 1.0003
vt 0.5202 0.7841
vt 0.9995 -0.0026
vt 0.9995 0.4973
vt 0.4996 0.4973
vt 0.4996 -0.0026
vn -0.0000 -1.0000 -0.0000
vn 0.0000 1.0000 0.0000
vn -1.0000 -0.0000 0.0000
vn -0.0000 0.0000 -1.0000
vn 1.0000 -0.0000 -0.0000
vn 0.0000 -0.0000 1.0000
usemtl Material.002
s 1
f 1/1/1 2/2/1 3/3/1 4/4/1
f 5/5/2 6/6/2 7/7/2 8/8/2
f 1/9/3 5/10/3 8/11/3 2/12/3
f 2/13/4 8/14/4 7/15/4 3/16/4
f 3/17/5 7/18/5 6/19/5 4/20/5
f 5/21/6 1/22/6 4/23/6 6/24/6
